<?xml version="1.0" encoding="UTF-8"?>
<svg id="Layer_2" data-name="Layer 2" xmlns="http://www.w3.org/2000/svg" viewBox="0 0 62.73 69.96">
  <defs>
    <style>
      .cls-1, .cls-2, .cls-3 {
        stroke-width: 0px;
      }

      .cls-2 {
        fill: #fff;
      }

      .cls-3 {
        fill: #231f20;
      }
    </style>
  </defs>
  <g id="Layer_8" data-name="Layer 8">
    <circle class="cls-2" cx="31.28" cy="38.99" r="30.97"/>
    <g id="Layer_6" data-name="Layer 6">
      <path class="cls-3" d="m60.77,49.11c-4.44-10.27-12.56-27.48-16.75-30.41-3.39-2.37-8.16-3.8-10.62-4.03-1.95-.18-18.57,5.68-31.53,13.65-.72,1.95-1.19,4.01-1.59,6.13-.21,1.1-.28,2.71-.28,4.71,6.4-7.73,30.61-24.76,38.11-22.05,7.5,2.71,21.15,30.84,22.36,32.87.11-.29.21-.58.3-.87Z"/>
    </g>
    <g id="Layer_3" data-name="Layer 3">
      <path class="cls-1" d="m20.65,45.96c-1.35.26-1.86-.3-3.18.43s-2.58-.16-3.49,1.35-4.77,4.72-6.08,4.82-2.36-2.21-2.09-2.9,1.95-.29,2.98-1.42,5.4-2.55,5.7-3.42,2.53-2.89,3.46-5.25,5.67-2.79,6.15-.35c.42,2.12,1.13,5.86-3.46,6.75Z"/>
      <path class="cls-1" d="m39.28,49.23c-.85.69-1.4.51-2.05,1.51s-1.84.88-1.95,2.24-1.64,5-2.52,5.57-2.42-.59-2.47-1.16,1.25-.94,1.57-2.1,2.85-3.78,2.75-4.48.74-2.91.55-4.86,2.95-4.05,4.14-2.59c1.04,1.26,2.85,3.51-.02,5.86Z"/>
      <path class="cls-1" d="m14.33,24.83c.07.61-4.48,2.52-4.48,2.52,0,0-1.83.27-2.33.36s-1.25.71-1.25.71c0,0,.14.72-.04,2.11s2.19,3.33,2.76,3.43,4.87.52,5.82.81-.78,2.94.02,5.57,4.78,4.87,6.36,6.76.33,5.39.65,6.23-2.16,4.88-2.24,6.42-1.63,2.39-1.4,3.09,2.49,1.68,3.44.71,1.9-5.97,1.65-7.71,1.28-1.94,1.84-3.39,2.02-1.92,2.02-1.92c0,0,1.73,1.25,5.08,2.19,1.22.34,3.9-.19,5.11-.14,1.4.06,2.5,1.01,3.55.37,2.87,1.63,4.67,6.54,3.78,7.79s-1.25,1.43-.34,2.01,3.44-.53,3.79-1.59c.18-.55.04-1.65.04-1.65l-.84-1.73.12-.85-1.21-5.31s.68-.87.87-2.9,1.11-4.19,1.22-4.68,1.13-6.71.79-7.43-1.52-2.75-2.77-3.26-3.81.13-4.48.09-2.35-1.46-3.18-1.63c-.17-.03-2.44.37-4.06.17-2.12-.26-4.64-1.17-6.1-1.14-3.03.06-4.24.97-5.68.48s-.77-2.07-.77-2.07c0,0,3.58-.5,3.17-1.91-.28-.98-3.79.37-4.56,0s-.59-1.14-1.05-1.4-1.15-.61-1.31-.85-1.23-.18-1.68-.14-.75-.31-.83-.89-.51-1.34-1.01-1.34-1.58.07-1.52.87.87,1.06,1.09,1.25Z"/>
      <path class="cls-2" d="m16.21,29.19c.42-.23.89-.86,1.53-.36s-.51.91-.79.87-.74-.22-.74-.51Z"/>
      <path class="cls-2" d="m13.98,26.03c-.59.33-.59,1.06-1.06,1.25s-2.7.76-3.33.72-1.16.27-1.12.55.31.68.64.75,1.23.37,1.45.41c.47.08,1.38-.2,1.8-.18s1.06-1.19,1.47-1.1,1.15-.92,1.81-.78,1.07.15,1.65-.03.67-.69.35-.97-.24-.59-.45-.58-.45.15-.8.06-.57-.29-.69-.38-1.01.03-1.14.04-.58.25-.58.25Z"/>
      <path class="cls-2" d="m26.63,36.95c.11,2.04,3.08,3.14,2.42,4.83s1.18,2.78,3.23,2.52,6.71-3.84,6.59-5.28-3.49-4.61-4.37-5.11.27-.55.88-.91-.97-1.57-1.27-1.75-7.44-1.48-8.2-.75c-.39.38,1.6.97,1.88,2.34.26,1.28-1.21,3.35-1.17,4.09Z"/>
      <path class="cls-2" d="m39.06,43.23c-1.79,1.26.57,3.2.7,4.36s2.33,1.6,3.36,1.31.59-5.96,1.68-5.86-1.23-2.14-2.34-2.09-3.4,2.28-3.4,2.28Z"/>
      <path class="cls-2" d="m13.85,34.64s3.5.42,4.56.42-1.14.35-1.4.42-2.73.08-2.73.08l-.44-.92Z"/>
      <polygon class="cls-1" points="47.35 34.08 51 38.21 47.35 38.46 47.35 34.08"/>
      <path class="cls-1" d="m49.67,36.7s2.67,2.55,4.16,5.87c1.28,2.85,4.47,4.01,5.97,3.6.25-.07.66-.41.48-.95.98-1.06,1.07.67.87,1.03-.69,1.25-3.62,1.17-5.28,0s-2.55-1.91-3.02-3.37-2.15-4.61-3.83-4.82"/>
      <path class="cls-1" d="m60.13,43.32c-.16.61-.45,1.6-.17,1.86s.56,1.21,1.09,1.11,1.44-.87,1.62-1.55-.04-1.98-.55-2.52c-.2.92-.36.95-.36.95,0,0,.14-1.46-.21-1.83-.28,1.01-1.22,1.23-1.41,1.98Z"/>
    </g>
    <g id="ufo">
      <g>
        <path class="cls-1" d="m55.13,16.78c-1.8,2.27-6.74,4.49-12.53,3.61-3.32-1.99-7.16-3.34-11.19-3.25-2.01-1.45-5.95-4.65-6.33-9.04-.37-4.22,9.79-4.01,16.82-2.1,7.98,2.17,15.98,7.33,13.24,10.79Z"/>
        <path class="cls-1" d="m34.18,6.16S37.05-1.92,43.74.46s3.92,10.39,3.92,10.39l-13.48-4.69Z"/>
      </g>
      <path class="cls-2" d="m25.82,6.24c.23.08.44.28.44.28,0,0,4.08-.51,8.75.88-.48.1-1.11.1-1.11.1l-8.12.36s-.31.4-.64.73c-.31-1.23.17-1.97.68-2.35Z"/>
      <path class="cls-2" d="m55.4,16.44c.27-.52.27-.85.27-.85l-.51.11s-3.49-3.07-7.39-4.29c2.99,1.48,6.84,4.98,6.84,4.98l.17.79s.35-.22.61-.74Z"/>
      <path class="cls-2" d="m27.28,8.5c-.43.79.63,3.71,2.5,4.14,1.6.37-.38,3.51,3.4,4.96,1.31.5,1.25-3.19,1.82-3.15s-1.73-1.62-1.47-2,1.36-2.43,1.02-2.68c-1.03-.76-1.46-2.69-1.46-2.69l-1.58-.23s-3.14-.34-4.23,1.65Z"/>
      <path class="cls-2" d="m40.97,19.92s4.19-1.93,3.94-2.99.65-1.71,1.48-2.73.29-3.29.61-3.36,3.79,1.88,4.44,2.46-2.46.81-3.03.89-1.34.79-1.95,1.41.18,1.71.04,2.24-1.19.4-1.84.66-.47.57-.54.92-.11.48-.69.48-1.77.66-1.77.66l-.69-.66Z"/>
      <path class="cls-2" d="m50.2,10.67c.33.42,1.11.88,1.69,1.09s.77.01.24-.38c-.3-.22-.93-.58-1.4-.74-.37-.12-.63-.1-.53.03Z"/>
      <path class="cls-2" d="m41.5,7.73c.41.34,1.28.63,1.88.71s.75-.15.15-.42c-.34-.15-1.03-.37-1.52-.42-.39-.04-.64.03-.51.14Z"/>
      <path class="cls-2" d="m30.71,5.68c.46.26,1.36.4,1.97.37s.71-.28.08-.44c-.36-.09-1.08-.19-1.57-.16-.39.03-.62.14-.48.23Z"/>
      <path class="cls-2" d="m37.24,2.4c.67-.49,1.88.73,2.58-.64S42.05.08,42.69.02c.9-.09,5.43,0,5.1,4.25-.91-1.82-2.23-2.46-3.62-2.42s-4.37,1.96-3.93,2.54-.48.57-.53.57-4.34-.2-4.34-.2c0,0,1.18-1.86,1.85-2.35Z"/>
      <polygon class="cls-2" points="31.28 18.23 32.62 16.49 33.32 17.64 31.28 18.23"/>
      <polygon class="cls-2" points="42.79 19.74 42.87 21.36 41.85 20.25 42.79 19.74"/>
    </g>
  </g>
</svg>